<svg xmlns="http://www.w3.org/2000/svg" width="32.325" height="21.06" viewBox="0 0 32.325 21.06">
  <g id="_26" data-name="26" transform="translate(0 -0.949)">
    <path id="Path_9306" data-name="Path 9306" d="M15.759,9.771l.1.119-.6.133.081.093-.6.125.069.084a3.4,3.4,0,0,1-.348.11,1.654,1.654,0,0,1-.259,0c-.092,0-.034.13-.15.164a1.988,1.988,0,0,1-.364.062l.09.115-.6.133.075.084-.751.195.08.1-.747.2.077.1-.748.2.087.1-.75.2.085.1-.737.189.07.143c-.208,0-.418-.032-.586.113l.071.079-.6.1.078.16a1.263,1.263,0,0,0-.814.181l.078.088c-.044.009-.082.03-.11.02a.372.372,0,0,0-.416.1.092.092,0,0,1-.07.012c-.033-.007-.075-.045-.093-.034-.082.048-.165.117-.258.051s-.141-.192-.241-.266c-.023-.017,0-.09,0-.124l-.354-.135.592-.233a.25.25,0,0,0-.287.029c-.061.036-.16.007-.237.007-.039-.21.127-.224.217-.256a18.824,18.824,0,0,0,1.745-.8c.618-.3,1.212-.651,1.838-.93.418-.186.821-.4,1.242-.579.475-.2.929-.441,1.41-.621.311-.116.6-.28.912-.394.3-.108.6-.234.884-.367q.467-.216.945-.4c.595-.234,1.186-.477,1.783-.7.393-.149.782-.317,1.173-.476.571-.232,1.153-.436,1.721-.676.494-.209,1.015-.352,1.515-.547.416-.162.837-.3,1.256-.456.751-.274,1.5-.548,2.257-.813.485-.17.977-.323,1.455-.509.715-.279,1.453-.488,2.173-.747.43-.155.86-.309,1.3-.447.534-.169,1.053-.384,1.59-.541.8-.235,1.589-.517,2.382-.78A15.672,15.672,0,0,0,36.247.983.854.854,0,0,1,36.51.949c.09.23-.213.17-.2.361a1.064,1.064,0,0,1,.171-.06,1.526,1.526,0,0,1,.218,0l-.076.2c.054.036.152.028.139.154-.006.063-.147.13-.01.2-.006.009-.01.021-.019.026a1.686,1.686,0,0,1-.179.1,9.206,9.206,0,0,1-.973.423c-.459.145-.9.341-1.352.5-.682.232-1.365.461-2.045.7-.431.151-.857.315-1.288.474l.075.083c-.009.009-.017.024-.027.025s-.5.074-.535.083l-.562.165.117.138c-.082-.015-.124-.019-.163-.03s-.093-.056-.125-.044c-.212.077-.42.164-.63.249l.1.123c-.083-.016-.125-.021-.164-.032s-.093-.055-.125-.043c-.212.077-.419.164-.63.248l.1.125c-.085-.017-.126-.023-.166-.034s-.093-.054-.125-.042c-.211.076-.419.163-.629.248l.105.127c-.086-.018-.136-.015-.165-.038a.128.128,0,0,0-.157-.021c-.393.155-.791.3-1.2.444l.076.086c-.1.139-.217-.153-.337.026-.048.071-.212.065-.338.1l.076.093a.255.255,0,0,1-.042.042c-.007,0-.333,0-.345,0l-.874.319.082.091a1.368,1.368,0,0,0-.663.141l.07.078c-.018.012-.04.038-.056.035-.387-.072-.7.171-1.044.258a3.537,3.537,0,0,0-.528.223l.071.083c-.027.012-.05.033-.068.029a1.176,1.176,0,0,0-.782.17,5.192,5.192,0,0,0-.916.391l.081.094h-.515l-.027.135c-.091.112-.318-.09-.38.176-.07,0-.153-.005-.234,0-.041,0-.113.03-.114.049,0,.083-.043.091-.115.1-.1.013-.258-.086-.28.121,0,.011-.063.018-.1.023-.1.016-.254-.065-.273.13l-.319.028c-.029.047-.051.124-.089.133a1.483,1.483,0,0,1-.29.018c-.023.2-.195.113-.294.139-.012.022-.024.033-.021.039s.017.017.025.027.023.034.051.078h-.475l.087.107c-.058.13-.232-.05-.291.111s-.208.046-.311.079l-.344.111c.006-.012,0,0,0,.005s.017.017.025.027.022.034.05.079Z" transform="translate(-4.439 0)" fill="#fff" fill-rule="evenodd"/>
    <path id="Path_9307" data-name="Path 9307" d="M27.014,58.425c1.334.21,1.116.053,1.08.156l.334.122-.252.176.061.069c-.016.012-.035.038-.052.036-.413-.031-.813.111-1.229.082a6.7,6.7,0,0,0-1.258.006c-.337.041-.671.053-1.008.066-.1,0-.189-.084-.315-.014-.094.052-.241.01-.365.01h-.778c-.123,0-.246,0-.369,0-.009,0-.018.016-.049.048l.312.04c0,.016,0,.031,0,.047-.129,0-.258.008-.386.009s-.272,0-.408,0c-.023,0-.057,0-.068-.012-.137-.184-.291-.161-.473-.067-.068.035-.17.006-.256.006-1.161,0-2.321,0-3.482,0-.126,0-.272-.062-.378.071a.037.037,0,0,1-.035,0c-.1-.123-.223.06-.306,0a.2.2,0,0,0-.28,0c-.031.021-.111-.017-.161-.042-.07-.036-.066-.085,0-.129-.013-.015-.023-.039-.039-.043s-.06-.006-.068.006c-.024.038-.027.093-.057.122a.253.253,0,0,1-.146.086c-.086,0-.191-.07-.253-.04a.271.271,0,0,1-.261,0c-.067-.027-.167.039-.252.04-.345.006-.69,0-1.026,0l-.091-.148-.179.152c-.144.036-.394-.1-.545.149l-.122-.134a1.41,1.41,0,0,1-.859,0c-.293.135-.6.017-.892.064a.659.659,0,0,0,.013-.149c-.115-.039-.1.066-.129.137h-.392l-.052.142c-.017-.009-.041-.013-.05-.027a.227.227,0,0,0-.286-.1,1.561,1.561,0,0,1-.676.066,2.755,2.755,0,0,0-.587.056l.356.036c-.272.024-.56.177-.763-.069a3.213,3.213,0,0,1-.371.051c-.355.006-.711,0-1.059,0l-.059.17-.157-.237c-.025.1-.084.207-.19.134s-.176-.024-.279,0c-.188.037-.388.011-.589.059l.281.044c-.015.024-.025.054-.036.054-.272,0-.544.015-.815,0a2.709,2.709,0,0,0-.6-.07.143.143,0,0,0-.1.057l.3.031a1.96,1.96,0,0,1-.926,0,.877.877,0,0,0-.478.031l.207.051c-.012.019-.022.05-.032.05-.123,0-.246,0-.369,0-.066-.156-.165.076-.266-.027-.066-.067-.2.09-.334-.032-.072-.066-.255-.012-.393.036l.292.046c-.022.024-.035.051-.048.051-.185,0-.371-.006-.556,0a8.012,8.012,0,0,0-1.078.085c-.19.036-.376.044-.564.066a.4.4,0,0,0-.381.289c-.064,0-.207.025-.22,0-.055-.13-.222-.144-.26-.256a.309.309,0,0,0-.181-.188.34.34,0,0,1-.125-.475L0,59.316c0-.027-.005-.059.007-.073a.775.775,0,0,1,.522-.265,6.377,6.377,0,0,1,1.088-.139c.213-.13.449-.051.673-.075.176-.019.349-.058.525-.07a1.927,1.927,0,0,0,.514-.014,1.421,1.421,0,0,1,.64-.056c.27.021.52-.088.785-.082a3.349,3.349,0,0,0,.813-.009c.5-.115,1,0,1.489-.071.608-.088,1.221,0,1.821-.079.807-.1,1.611-.025,2.416-.061.1,0,.2,0,.3,0,.083,0,.174.022.23-.071.044.117.14-.012.217.045.047.035.165-.037.252-.046s.2,0,.3,0H13.7c.1,0,.2-.007.3,0,.116.011.23-.028.35.054.058.04.192-.05.292-.053.308-.008.617,0,.926-.006.115,0,.244.054.342-.07.064-.081.112.142.209.02.031-.038.185-.045.2-.017.093.156.2-.081.27.015.1.136.163-.024.245-.019a1.1,1.1,0,0,1,.137.026c.08.016.207.07.232.04.1-.123.22,0,.331-.049a1.083,1.083,0,0,1,.4-.018c2.42,0,4.84,0,7.26,0a2.143,2.143,0,0,0,.969-.07c.165.142.328-.016.495-.008.517.023,1.036.008,1.59.008-.019.058-.03.141-.049.143a6.015,6.015,0,0,1-.784.086c-.543-.02-1.086-.006-1.63,0-.02,0-.039.023-.059.035a.39.39,0,0,0,.074.036c.065.016.125.1.2,0,.02-.024.094,0,.144,0,.715,0,1.43,0,.874.031a6.138,6.138,0,0,1-1.288-.008,3.139,3.139,0,0,0-.345-.089c-.062-.009-.454,0-.51,0s-.122-.025-.142,0c-.1.116-.229.068-.344.068q-2.631,0-5.262,0c-.1,0-.22.054-.314-.048-.018-.02-.082-.029-.1-.015-.112.122-.255.051-.382.065a2.437,2.437,0,0,0-.787.069c-.073.032-.185-.014-.277-.035a.78.78,0,0,0-.523.013c-.06.028-.134-.078-.184.023a.273.273,0,0,0-.336-.057c-.137.072-.237-.065-.353-.012-.021.009-.052.006-.065.021-.061.07-.1.054-.184.011a.379.379,0,0,0-.28-.024.677.677,0,0,1-.315.052,1.341,1.341,0,0,0-.349.013c-.9.033-1.808-.045-2.713.066-.675.083-1.36-.03-2.045.07-.623.091-1.262-.023-1.9.076-.5.079-1.017-.033-1.526.076a5.9,5.9,0,0,1-.739.013,2.507,2.507,0,0,0-.682.048,2.465,2.465,0,0,1-.733.022.637.637,0,0,0-.114.023.166.166,0,0,0,.142.05,10.89,10.89,0,0,0,1.305-.062c.525-.081,1.063.022,1.6-.074A11.916,11.916,0,0,0,8.8,58.689c.071-.022.131.142.2.006.08.122.155-.008.233-.009a9.669,9.669,0,0,0,1.823-.067c.081-.017.2-.031.249.013.105.1.156-.056.248-.021a.771.771,0,0,0,.257.006c.494,0,.988,0,1.482,0,.127,0,.269.056.383-.064.013-.013.079.03.123.04s.151.044.168.022c.069-.09.11-.011.168,0s.127-.062.191-.062c.1,0,.224-.052.306.062.072-.085.17-.067.263-.066s.2-.031.265.072c.067-.105.173-.072.266-.072.618,0,1.236.013,1.853-.005a8.156,8.156,0,0,0,1.822-.07c.074.071.171.033.254.04.107.009.218-.036.328-.036.127,0,.265-.044.374.065.121-.133.279-.063.417-.064,1.63-.006,3.261,0,4.892,0,.119,0,.238-.007,1.649-.042" transform="translate(0 -38.394)" fill="#fff" fill-rule="evenodd"/>
    <path id="Path_9308" data-name="Path 9308" d="M18.024,42.254l-.127.223h.354l.008-.032c-.034-.009-.068-.02-.1-.027s-.068-.01-.11-.016c.006-.044,0-.1.016-.107a.971.971,0,0,1,.255-.1c.2-.034.4-.049.6-.078.1-.015.2-.044.289-.065.11.163-.1.109-.113.2.257.093.478-.122.727-.083a.666.666,0,0,0-.519,0c.023-.04.035-.1.069-.116a.934.934,0,0,1,.227-.077c.127-.03.267.052.388-.048.094-.078.229.015.337-.092.054-.054.206-.009.326-.009-.1.206-.263.125-.4.151a.879.879,0,0,0-.345.144,5.566,5.566,0,0,0,.8-.08c.247-.059.486-.15.745-.2l-.521-.029v-.045l1.1-.173.012.058-.513.134c.159.019.32.107.47-.025.333.014.655-.16,1-.061v.246c-.061.027-.128-.063-.193.024-.031.041-.145-.045-.173.072-.008.032-.074.082-.085.075-.181-.107-.357.026-.533,0a.926.926,0,0,1-.172-.06l-.036.188c-.1-.087-.237.1-.333-.045l-.055.153c-.133-.047-.258-.142-.41-.057l.091.113-.635-.084-.239.239c-.117,0-.165-.138-.284-.026a.823.823,0,0,1-.374.158.59.59,0,0,1-.272-.031c-.062-.017-.113.05-.194-.019s-.075.079-.119.119a.245.245,0,0,1-.15.076c-.2-.015-.38.089-.576.048-.01,0-.018-.017-.026-.025-.21.215-.519.121-.749.237-.192.1-.414-.029-.577.129a10.688,10.688,0,0,0-1.587.371c-.315-.037-.586.146-.891.181a3.526,3.526,0,0,0-.839.2,14.066,14.066,0,0,0-1.45.431c-.166-.036-.267.06-.381.16a.632.632,0,0,1-.248.078c-.16-.126-.253-.294-.432-.352l.1-.393a8.792,8.792,0,0,1,1.291-.388c.212-.035.411-.152.622-.189.264-.047.52-.133.782-.167.28-.037.544-.128.815-.189.167-.038.343-.079.508-.1.279-.041.538-.154.82-.18a3.791,3.791,0,0,0,.5-.128c.115-.027.242.045.351-.048.093-.079.25.037.328-.1a1.835,1.835,0,0,0,.6-.076,1.441,1.441,0,0,0,.227-.089" transform="translate(-7.446 -27.311)" fill="#fff" fill-rule="evenodd"/>
  </g>
</svg>
