<svg id="Layer_x0020_1" xmlns="http://www.w3.org/2000/svg" width="52.701" height="52.707" viewBox="0 0 52.701 52.707">
  <g id="_1421344023328" transform="translate(0 0)">
    <path id="Path_9185" data-name="Path 9185" d="M51.912,32.729A26.344,26.344,0,1,1,32.722.789a26.346,26.346,0,0,1,19.19,31.94h0Z" transform="translate(0 -0.001)" fill="#fff"/>
    <path id="Path_9186" data-name="Path 9186" d="M1020.618,726.168c.525-3.507-2.146-5.392-5.8-6.65l1.184-4.751-2.892-.72-1.153,4.626c-.76-.19-1.541-.368-2.317-.546l1.161-4.656-2.89-.721-1.185,4.749c-.629-.143-1.247-.285-1.847-.434l0-.015-3.988-1-.769,3.089s2.146.492,2.1.522a1.539,1.539,0,0,1,1.348,1.682l-1.349,5.412a2.33,2.33,0,0,1,.3.1l-.306-.076-1.891,7.581a1.052,1.052,0,0,1-1.325.687c.029.042-2.1-.525-2.1-.525l-1.436,3.31,3.763.938c.7.176,1.386.359,2.062.532l-1.2,4.805,2.889.721,1.185-4.754c.789.214,1.555.412,2.3.6l-1.181,4.732,2.892.72,1.2-4.8c4.931.933,8.639.557,10.2-3.9,1.258-3.591-.063-5.662-2.657-7.013a4.611,4.611,0,0,0,3.692-4.246h0Zm-6.607,9.265c-.894,3.591-6.94,1.65-8.9,1.163l1.588-6.366C1008.659,730.719,1014.945,731.687,1014.011,735.433Zm.894-9.317c-.815,3.266-5.848,1.607-7.48,1.2l1.44-5.774c1.632.407,6.89,1.166,6.041,4.574Z" transform="translate(-982.647 -703.569)" fill="#5fd2fa"/>
  </g>
</svg>
