<svg id="Group_13703" data-name="Group 13703" xmlns="http://www.w3.org/2000/svg" width="52.723" height="52.724" viewBox="0 0 52.723 52.724">
  <path id="Path_9173" data-name="Path 9173" d="M30.369,22.154l10.24-10.236L50.853,22.162,56.808,16.2,40.609,0,24.41,16.2Z" transform="translate(-14.243)" fill="#fff"/>
  <path id="Path_9174" data-name="Path 9174" d="M0,0H8.424V8.424H0Z" transform="translate(0 26.363) rotate(-45)" fill="#fff"/>
  <path id="Path_9175" data-name="Path 9175" d="M30.357,73.4,40.6,83.644,50.842,73.4,56.8,79.351l0,0-16.2,16.2L24.4,79.363l-.008-.008Z" transform="translate(-14.231 -42.834)" fill="#fff"/>
  <path id="Path_9176" data-name="Path 9176" d="M0,0H8.424V8.424H0Z" transform="translate(40.809 26.364) rotate(-45)" fill="#fff"/>
  <path id="Path_9177" data-name="Path 9177" d="M60.873,54.827,54.831,48.78l-4.468,4.468-.516.512-1.058,1.058-.008.008.008.012,6.042,6.038,6.042-6.047,0,0Z" transform="translate(-28.465 -28.467)" fill="#fff"/>
</svg>
