<svg id="help" xmlns="http://www.w3.org/2000/svg" width="64.653" height="64.653" viewBox="0 0 64.653 64.653">
  <path id="Path_9706" data-name="Path 9706" d="M64.653,43.754a20.947,20.947,0,0,0-15.3-20.138A24.686,24.686,0,1,0,3.423,37.235L.091,49.282,12.139,45.95a24.6,24.6,0,0,0,11.477,3.4,20.905,20.905,0,0,0,30.773,12.4l10.174,2.814L61.748,54.388A20.824,20.824,0,0,0,64.653,43.754Zm-51.916-1.9-7.212,2,2-7.212-.455-.711a20.892,20.892,0,1,1,6.383,6.383ZM59.129,59.129l-5.352-1.481-.715.465a17.117,17.117,0,0,1-25.529-8.9A24.733,24.733,0,0,0,49.209,27.532a17.117,17.117,0,0,1,8.9,25.53l-.465.715Zm0,0" fill="#5fd2fa"/>
  <path id="Path_9707" data-name="Path 9707" d="M180.5,271h3.788v3.788H180.5Zm0,0" transform="translate(-157.707 -236.779)" fill="#5fd2fa"/>
  <path id="Path_9708" data-name="Path 9708" d="M146.865,97.577a3.749,3.749,0,0,1-1.233,2.8l-4.449,4.072v4.622h3.788v-2.954l3.219-2.946A7.576,7.576,0,1,0,135.5,97.577h3.788a3.788,3.788,0,1,1,7.577,0Zm0,0" transform="translate(-118.39 -78.635)" fill="#5fd2fa"/>
</svg>
