<svg xmlns="http://www.w3.org/2000/svg" width="763.481" height="525.469" viewBox="0 0 763.481 525.469">
  <g id="hero_illustration" data-name="hero illustration" transform="translate(-125.335 -407.584)">
    <g id="Group_14056" data-name="Group 14056" transform="translate(125.335 490.719)">
      <path id="Path_9546" data-name="Path 9546" d="M200.633,909.255c11.328-7.2,16.34,13.649,17.472,19.312a83.151,83.151,0,0,1,13.327,3.168c-3.821-5.9-10.177-7.76-11.5-12.177-1.48-4.953.1-11.02,8-6.121,6.263,3.882,5.592,14.557,5.043,18.826a75.563,75.563,0,0,1,16.011,7.783c-3.47-7.429-10.605-10.44-11.585-15.613-1.073-5.66,1.361-12.091,9.545-5.536,6.764,5.419,4.341,17.837,3.3,21.984a45.14,45.14,0,0,1,5.478,4.273,147.314,147.314,0,0,1,10.392,10.741c-2.914-6.611-8.53-10.451-8.84-15.244-.372-5.753,2.837-11.706,10.169-3.933,5.8,6.149,2.446,17.277.791,21.659A145.654,145.654,0,0,1,284,981.446c-.6-6.747-5.833-16.013-4.453-22.32.906-4.138,3.439-5.165,5.419-5.294a5.416,5.416,0,0,1,4.511,2.1c6.685,8.082-1.926,22.676-4.7,26.935a147,147,0,0,1,10.807,25.715c-.286-3.491-.739-8.76-1.083-11.489-.543-4.3.7-10.358,3.563-12.839.119-.1.238-.2.357-.289,2.279-1.715,5.365-1.068,7.294,1.257,7.55,9.1-6.211,23.283-9.267,26.237.015.053.032.107.047.16,5.522,19.2,5.25,32.8,5.236,33.368l-1.846-.121c0-.132.253-13.074-4.707-31.093-17.357-1.952-22.532-13.19-20.333-17.424,2.273-4.376,8.938-6.048,12.291,2.071a59.475,59.475,0,0,0,7.1,12.094,144.5,144.5,0,0,0-10.879-26.294c-22.368,6.262-24.9-9.975-20.427-13.831,4.527-3.9,8.353-1.6,12.244,4.519a30.66,30.66,0,0,0,7.507,8.06,143.656,143.656,0,0,0-15.4-22.705c-2.617,3.561-9.9,12.123-17.287,8.711-9.234-4.264-6-10.2-1.359-12.309,4.265-1.943,10.433,3.354,17.725,2.5a145.106,145.106,0,0,0-11.795-12.4,55.987,55.987,0,0,0-10.78-7.413c-2.221,3.958-8.445,13.429-16.088,11.109-9.6-2.913-7.056-9.286-2.707-12.06,3.881-2.474,10.291,1.58,17.166.082a79.069,79.069,0,0,0-23.966-7.778c-2.332,4.088-8.463,13.146-15.954,10.872-9.6-2.913-7.056-9.286-2.706-12.06,3.936-2.509,10.471,1.7,17.456.019l.019-.221c-2.489-1.17-7.776-3.632-10.355-4.663-3.442-1.377-7.387-5.321-7.95-9.28A6.964,6.964,0,0,1,200.633,909.255Z" transform="translate(-164.385 -907.76)" fill="#07085b"/>
      <path id="Path_9547" data-name="Path 9547" d="M185.733,1097.736l-28-.45c-9.755-17.6-16.919-32.9-16.919-32.9,31.606-7.352,58.3-4.413,80.549,4.088l12.312,29.737,2.576-22.922c55.162,29.622,77.992,92.522,77.992,92.522s-97.4-10.175-118.065-19.733c-7.979-3.691-18.05-17.01-27.408-31.97C176.221,1108.987,185.733,1097.736,185.733,1097.736Z" transform="translate(-133.932 -992.41)" fill="#5fd2fa"/>
      <path id="Path_9548" data-name="Path 9548" d="M140.816,1069.613s125.131,52.36,173.43,103.426c0,0-97.4-10.175-118.065-19.734-7.979-3.691-18.05-17.01-27.408-31.97,7.449-7.12,16.961-18.371,16.961-18.371l-28-.45C147.98,1084.916,140.816,1069.613,140.816,1069.613Z" transform="translate(-133.932 -997.638)" fill="#7cddff"/>
      <path id="Path_9549" data-name="Path 9549" d="M125.61,1131.506c5.345-8.85,15.95,3.813,18.672,7.33a64,64,0,0,1,10.278-2.384c-4.657-2.757-9.68-1.863-12.1-4.457-2.718-2.908-3.713-7.633,3.419-6.964,5.651.53,8.848,8.123,9.933,11.255a58.238,58.238,0,0,1,13.712-.12c-4.941-3.934-10.895-3.565-13.344-6.8-2.68-3.536-3.206-8.806,4.686-7.091,6.523,1.419,9.109,10.815,9.81,14.033a34.919,34.919,0,0,1,5.244,1.069,113.484,113.484,0,0,1,10.849,3.846c-4.277-3.561-9.467-4.284-11.323-7.484-2.229-3.84-2.057-9.047,5.665-6.2,6.109,2.253,7.611,11.078,7.971,14.669a112.144,112.144,0,0,1,18.783,10.506c-2.73-4.446-9.514-9.045-10.723-13.868-.794-3.165.6-4.741,1.923-5.509a4.173,4.173,0,0,1,3.83-.1c7.382,3.283,6.446,16.3,5.99,20.19a113.15,113.15,0,0,1,16.27,14.031c-1.394-2.31-3.513-5.789-4.685-7.552-1.849-2.781-3.065-7.385-1.944-10.077.047-.112.1-.219.147-.321a4.061,4.061,0,0,1,5.462-1.634c8.326,3.686,3.7,18.188,2.6,21.273l.087.094c10.393,11.353,14.866,20.822,15.051,21.219l-1.315.549c-.043-.092-4.308-9.1-13.907-19.832-12.641,4.6-20.062-1.372-20-5.047.067-3.8,4.091-7.235,9.187-2.785a45.818,45.818,0,0,0,9.046,5.907,111.246,111.246,0,0,0-16.518-14.406c-13.28,11.988-20.593,1.656-18.83-2.537,1.785-4.244,5.214-3.965,9.994-1.08a23.625,23.625,0,0,0,7.941,2.985,110.652,110.652,0,0,0-18.406-10.38c-.584,3.353-2.671,11.755-8.937,11.935-7.831.225-7.632-4.977-5.158-8.024,2.275-2.8,8.346-1.264,13.082-4.354a111.712,111.712,0,0,0-12.386-4.507,43.087,43.087,0,0,0-9.976-1.416c-.175,3.491-1.221,12.157-7.287,13.177-7.619,1.282-8.051-3.986-6-7.39,1.829-3.036,7.639-2.438,11.868-5.828a60.884,60.884,0,0,0-19.2,2.852c-.207,3.619-1.331,11.968-7.277,12.968-7.619,1.281-8.05-3.986-6-7.39,1.854-3.08,7.8-2.417,12.046-5.972l-.063-.158c-2.117.046-6.608.16-8.74.333-2.846.231-6.919-1.138-8.665-3.675A5.366,5.366,0,0,1,125.61,1131.506Z" transform="translate(-125.335 -1026.698)" fill="#feb546"/>
      <path id="Path_9550" data-name="Path 9550" d="M150.17,1234.7a128.365,128.365,0,0,1,50.218-18.027c4.828,5.98,10.757,13.012,10.757,13.012l.6-14.043c63.056-3,115.4,39.147,115.4,39.147-36.478,23.1-67.622,29.505-93.147,27.5-1.522-4.91-3.678-12.234-3.678-12.234l-4.486,11.291a110.08,110.08,0,0,1-32.375-10.328c2.376-5.856,4.878-12.55,4.878-12.55l-13.576,7.748C161.949,1252.342,150.17,1234.7,150.17,1234.7Z" transform="translate(-139.126 -1078.647)" fill="#4299f7"/>
      <path id="Path_9551" data-name="Path 9551" d="M233.99,1304.261c-1.522-4.91-3.678-12.234-3.678-12.234l-4.486,11.29a110.062,110.062,0,0,1-32.375-10.328c2.376-5.856,4.878-12.55,4.878-12.55l-13.576,7.748c-22.8-13.88-34.583-31.516-34.583-31.516,73.458-8.637,176.967,20.09,176.967,20.09C290.659,1299.856,259.515,1306.266,233.99,1304.261Z" transform="translate(-139.126 -1100.614)" fill="#2d6ae0"/>
    </g>
    <g id="Group_14057" data-name="Group 14057" transform="translate(675.71 698.357)">
      <path id="Path_9552" data-name="Path 9552" d="M1534.554,1420.649l32.942-.531c11.478-20.7,19.906-38.709,19.906-38.709-37.186-8.651-55.646-9.461-81.826.541l-17.054,26.675-3.145-21.919c-64.9,34.852-102.025,116.39-102.025,116.39s114.6-11.972,138.912-23.219c9.387-4.342,21.236-20.012,32.247-37.614C1545.745,1433.886,1534.554,1420.649,1534.554,1420.649Z" transform="translate(-1374.294 -1374.685)" fill="#7cddff"/>
      <path id="Path_9553" data-name="Path 9553" d="M1587.4,1389.807s-147.225,61.6-204.051,121.686c0,0,114.6-11.972,138.912-23.219,9.387-4.342,21.236-20.012,32.247-37.614-8.764-8.377-19.956-21.614-19.956-21.614l32.942-.531C1578.973,1407.812,1587.4,1389.807,1587.4,1389.807Z" transform="translate(-1374.294 -1383.082)" fill="#5fd2fa"/>
      <path id="Path_9554" data-name="Path 9554" d="M1571.2,1584.047a151.006,151.006,0,0,0-59.084-21.21c-5.682,7.035-12.657,15.309-12.657,15.309l-.7-16.522c-74.19-3.53-135.771,46.06-135.771,46.06,42.919,27.172,79.562,34.714,109.594,32.355,1.79-5.777,4.326-14.394,4.326-14.394l5.278,13.283a129.528,129.528,0,0,0,38.091-12.151c-2.8-6.891-5.739-14.767-5.739-14.767l15.974,9.116C1557.34,1604.8,1571.2,1584.047,1571.2,1584.047Z" transform="translate(-1362.986 -1478.394)" fill="#feb546"/>
      <path id="Path_9555" data-name="Path 9555" d="M1472.58,1665.885c1.79-5.777,4.326-14.394,4.326-14.394l5.278,13.283a129.538,129.538,0,0,0,38.091-12.151c-2.8-6.891-5.739-14.767-5.739-14.767l15.974,9.116c26.83-16.329,40.689-37.08,40.689-37.08-86.428-10.162-208.213,23.637-208.213,23.637C1405.9,1660.7,1442.548,1668.244,1472.58,1665.885Z" transform="translate(-1362.986 -1504.24)" fill="#f4a640"/>
    </g>
    <path id="Path_9556" data-name="Path 9556" d="M1263.938,782.565,1009.7,726.256V1124.7l254.241,53.666Z" transform="translate(-491.093 -316.25)" fill="#224299"/>
    <path id="Path_9557" data-name="Path 9557" d="M1588.073,1245.12l-6.653.1V846.749l6.653-.1Z" transform="translate(-808.575 -383.106)" fill="#151c55"/>
    <path id="Path_9558" data-name="Path 9558" d="M1009.7,723.5l2.917-2.2,257.977,55.743-6.653,2.771Z" transform="translate(-491.093 -313.497)" fill="#4d5296"/>
    <path id="Path_9559" data-name="Path 9559" d="M437.975,782.565l254.241-56.309V1124.7l-254.241,53.666Z" transform="translate(-173.611 -316.25)" fill="#224299"/>
    <path id="Path_9560" data-name="Path 9560" d="M461.956,791.282l225.961-56.114s11.867,4.987,17.616,4.295L598.141,829.22s-74.41,9.642-76.3,6.433S461.956,791.282,461.956,791.282Z" transform="translate(-186.928 -321.199)" fill="#eaf5f9"/>
    <path id="Path_9561" data-name="Path 9561" d="M461.957,1251.509l28.794,12.883V874.236l-28.794-12.883Z" transform="translate(-186.928 -391.271)" fill="#daeef7"/>
    <g id="Group_14058" data-name="Group 14058" transform="translate(303.822 418.264)">
      <path id="Path_9562" data-name="Path 9562" d="M741.489,1135.01l-214.782,64.674V809.5l214.782-64.674Z" transform="translate(-526.707 -744.826)" fill="#cae2ea"/>
      <path id="Path_9563" data-name="Path 9563" d="M746.842,853.124,575.1,904.838v-28.1l171.741-51.714Z" transform="translate(-553.581 -789.359)" fill="#cae2ea" opacity="0.5" style="mix-blend-mode: multiply;isolation: isolate"/>
      <path id="Path_9564" data-name="Path 9564" d="M826.4,909.464,718.37,941.993V936.95L826.4,904.42Z" transform="translate(-633.138 -833.45)" fill="#cae2ea" opacity="0.5" style="mix-blend-mode: multiply;isolation: isolate"/>
      <path id="Path_9565" data-name="Path 9565" d="M826.4,937.82,718.37,970.35v-5.044L826.4,932.776Z" transform="translate(-633.138 -849.196)" fill="#cae2ea" opacity="0.5" style="mix-blend-mode: multiply;isolation: isolate"/>
      <path id="Path_9566" data-name="Path 9566" d="M826.4,966.177,718.37,998.706v-5.044L826.4,961.133Z" transform="translate(-633.138 -864.943)" fill="#cae2ea" opacity="0.5" style="mix-blend-mode: multiply;isolation: isolate"/>
      <path id="Path_9567" data-name="Path 9567" d="M826.4,994.533l-108.031,32.53v-5.044L826.4,989.489Z" transform="translate(-633.138 -880.689)" fill="#cae2ea" opacity="0.5" style="mix-blend-mode: multiply;isolation: isolate"/>
      <path id="Path_9568" data-name="Path 9568" d="M826.4,1022.889,718.37,1055.418v-5.043l108.031-32.53Z" transform="translate(-633.138 -896.435)" fill="#cae2ea" opacity="0.5" style="mix-blend-mode: multiply;isolation: isolate"/>
      <path id="Path_9569" data-name="Path 9569" d="M826.4,1051.245l-108.031,32.53v-5.044L826.4,1046.2Z" transform="translate(-633.138 -912.182)" fill="#cae2ea" opacity="0.5" style="mix-blend-mode: multiply;isolation: isolate"/>
      <path id="Path_9570" data-name="Path 9570" d="M826.4,1079.6l-108.031,32.53v-5.044L826.4,1074.558Z" transform="translate(-633.138 -927.928)" fill="#cae2ea" opacity="0.5" style="mix-blend-mode: multiply;isolation: isolate"/>
      <path id="Path_9571" data-name="Path 9571" d="M826.4,1107.958l-108.031,32.53v-5.044l108.031-32.53Z" transform="translate(-633.138 -943.675)" fill="#cae2ea" opacity="0.5" style="mix-blend-mode: multiply;isolation: isolate"/>
      <path id="Path_9572" data-name="Path 9572" d="M826.4,1136.314,718.37,1168.843V1163.8L826.4,1131.27Z" transform="translate(-633.138 -959.421)" fill="#cae2ea" opacity="0.5" style="mix-blend-mode: multiply;isolation: isolate"/>
      <path id="Path_9573" data-name="Path 9573" d="M826.4,1164.67,718.37,1197.2v-5.044l108.031-32.53Z" transform="translate(-633.138 -975.167)" fill="#cae2ea" opacity="0.5" style="mix-blend-mode: multiply;isolation: isolate"/>
      <path id="Path_9574" data-name="Path 9574" d="M746.842,1193.026,575.1,1244.74V1239.7l171.741-51.714Z" transform="translate(-553.581 -990.914)" fill="#cae2ea" opacity="0.5" style="mix-blend-mode: multiply;isolation: isolate"/>
      <path id="Path_9575" data-name="Path 9575" d="M660.972,1279.528l-85.87,25.857v-5.044l85.87-25.857Z" transform="translate(-553.581 -1038.949)" fill="#cae2ea" opacity="0.5" style="mix-blend-mode: multiply;isolation: isolate"/>
      <path id="Path_9576" data-name="Path 9576" d="M660.972,1307.884l-85.87,25.857V1328.7l85.87-25.857Z" transform="translate(-553.581 -1054.695)" fill="#cae2ea" opacity="0.5" style="mix-blend-mode: multiply;isolation: isolate"/>
      <path id="Path_9577" data-name="Path 9577" d="M660.972,1336.24,575.1,1362.1v-5.044l85.87-25.857Z" transform="translate(-553.581 -1070.442)" fill="#cae2ea" opacity="0.5" style="mix-blend-mode: multiply;isolation: isolate"/>
      <path id="Path_9578" data-name="Path 9578" d="M660.972,1364.6l-85.87,25.857v-5.044l85.87-25.857Z" transform="translate(-553.581 -1086.188)" fill="#cae2ea" opacity="0.5" style="mix-blend-mode: multiply;isolation: isolate"/>
      <path id="Path_9579" data-name="Path 9579" d="M660.972,1392.953,575.1,1418.81v-5.043l85.87-25.857Z" transform="translate(-553.581 -1101.935)" fill="#cae2ea" opacity="0.5" style="mix-blend-mode: multiply;isolation: isolate"/>
      <path id="Path_9580" data-name="Path 9580" d="M660.972,1421.309l-85.87,25.857v-5.044l85.87-25.856Z" transform="translate(-553.581 -1117.681)" fill="#cae2ea" opacity="0.5" style="mix-blend-mode: multiply;isolation: isolate"/>
      <path id="Path_9581" data-name="Path 9581" d="M660.972,1449.665l-85.87,25.857v-5.044l85.87-25.857Z" transform="translate(-553.581 -1133.427)" fill="#cae2ea" opacity="0.5" style="mix-blend-mode: multiply;isolation: isolate"/>
      <path id="Path_9582" data-name="Path 9582" d="M660.972,1478.022l-85.87,25.857v-5.044l85.87-25.857Z" transform="translate(-553.581 -1149.174)" fill="#cae2ea" opacity="0.5" style="mix-blend-mode: multiply;isolation: isolate"/>
      <path id="Path_9583" data-name="Path 9583" d="M660.972,1506.378l-85.87,25.857v-5.044l85.87-25.857Z" transform="translate(-553.581 -1164.92)" fill="#cae2ea" opacity="0.5" style="mix-blend-mode: multiply;isolation: isolate"/>
      <path id="Path_9584" data-name="Path 9584" d="M746.842,1476.589,575.1,1528.3v-5.043l171.741-51.714Z" transform="translate(-553.581 -1148.378)" fill="#cae2ea" opacity="0.5" style="mix-blend-mode: multiply;isolation: isolate"/>
      <path id="Path_9585" data-name="Path 9585" d="M746.842,1504.945,575.1,1556.659v-5.044L746.842,1499.9Z" transform="translate(-553.581 -1164.125)" fill="#cae2ea" opacity="0.5" style="mix-blend-mode: multiply;isolation: isolate"/>
      <path id="Path_9586" data-name="Path 9586" d="M746.842,1533.3,575.1,1585.015v-5.044l171.741-51.713Z" transform="translate(-553.581 -1179.871)" fill="#cae2ea" opacity="0.5" style="mix-blend-mode: multiply;isolation: isolate"/>
      <path id="Path_9587" data-name="Path 9587" d="M575.1,1117.958l56.608-17.046V982.38L575.1,999.425Z" transform="translate(-553.581 -876.741)" fill="#cae2ea" opacity="0.5" style="mix-blend-mode: multiply;isolation: isolate"/>
      <path id="Path_9588" data-name="Path 9588" d="M781.832,1346.293l79.81-24.032V1216.339l-79.81,24.032Z" transform="translate(-668.379 -1006.661)" fill="#cae2ea" opacity="0.5" style="mix-blend-mode: multiply;isolation: isolate"/>
    </g>
    <path id="Path_9589" data-name="Path 9589" d="M1253.274,791.282l-225.961-56.114s-11.866,4.987-17.616,4.295l107.392,89.757s74.41,9.642,76.3,6.433S1253.274,791.282,1253.274,791.282Z" transform="translate(-491.092 -321.199)" fill="#f3fcff"/>
    <path id="Path_9590" data-name="Path 9590" d="M1521.483,1251.509l-28.794,12.883V874.236l28.794-12.883Z" transform="translate(-759.301 -391.271)" fill="#b6d5e0"/>
    <path id="Path_9591" data-name="Path 9591" d="M1009.7,1135.01l214.783,64.674V809.5L1009.7,744.826Z" transform="translate(-491.093 -326.562)" fill="#daeef7"/>
    <path id="Path_9592" data-name="Path 9592" d="M423.014,1245.12l6.653.1V846.749l-6.653-.1Z" transform="translate(-165.303 -383.106)" fill="#151c55"/>
    <path id="Path_9593" data-name="Path 9593" d="M683.908,723.5l-2.917-2.2L423.014,777.041l6.653,2.771Z" transform="translate(-165.303 -313.497)" fill="#4d5296"/>
    <path id="Path_9594" data-name="Path 9594" d="M1004.828,724.936a67.107,67.107,0,0,0-18.864-4.023c-2.567-.237-10.451-.444-22.608,3.882a14.541,14.541,0,0,0,2.217,1.791h0a26.959,26.959,0,0,0,11.163,4.208A36.131,36.131,0,0,0,1004.828,724.936Z" transform="translate(-465.359 -313.225)" fill="#07085b"/>
    <path id="Path_9595" data-name="Path 9595" d="M1033.679,1142.477l193.66,58.314V848.979l-193.66-58.314Z" transform="translate(-504.41 -352.017)" fill="#07085b"/>
    <path id="Path_9596" data-name="Path 9596" d="M1033.679,1190.84v173.546l103.139,31.057a123,123,0,0,0-103.139-204.6Z" transform="translate(-504.41 -573.925)" fill="#feb546"/>
    <g id="Group_14060" data-name="Group 14060" transform="translate(535.734 617.272)">
      <g id="Group_14059" data-name="Group 14059" transform="translate(0 0)">
        <path id="Path_9597" data-name="Path 9597" d="M1068.387,1192.345a123.092,123.092,0,0,1-20.17,175.135l96.674,29.11a123.01,123.01,0,0,0-76.5-204.245Z" transform="translate(-1048.217 -1192.345)" fill="#f4a640"/>
      </g>
    </g>
    <g id="Group_14064" data-name="Group 14064" transform="translate(529.269 644.885)">
      <g id="Group_14063" data-name="Group 14063" transform="translate(0)">
        <g id="Group_14061" data-name="Group 14061" transform="translate(106.841)">
          <path id="Path_9598" data-name="Path 9598" d="M1279.178,1277.925c32.182-6.641,60.131-10.974,81.578-12.679V1254.44c-25.318,3.759-54.7,9.354-86.819,16.6Q1276.669,1274.377,1279.178,1277.925Z" transform="translate(-1273.936 -1254.44)" fill="#d37300"/>
        </g>
        <g id="Group_14062" data-name="Group 14062" transform="translate(0 52.547)">
          <path id="Path_9599" data-name="Path 9599" d="M1227.339,1383.413V1372.6c-40.156,19.5-103.381,42.811-175.744,63.7q-9.029,2.606-17.916,5.067v7.357q9.863-2.742,19.877-5.631C1120.434,1423.792,1180.862,1402.78,1227.339,1383.413Z" transform="translate(-1033.679 -1372.604)" fill="#d37300"/>
        </g>
      </g>
    </g>
    <g id="Group_14065" data-name="Group 14065" transform="translate(529.269 438.649)" opacity="0.2" style="mix-blend-mode: screen;isolation: isolate">
      <path id="Path_9600" data-name="Path 9600" d="M1094.151,808.875l-60.472-18.209v168.28c6.927-3.633,12.887-8.708,16.652-15.531,4.349-7.879,5.536-17.632,11.793-24.1,7.75-8.011,20.293-8.161,30.778-11.944,3.293-1.187,6.588-2.9,8.528-5.81a17.686,17.686,0,0,0,2.362-7.145,66.605,66.605,0,0,0-.95-25.557c-3.753-15.956-13.448-31.024-11.848-47.336A51.493,51.493,0,0,1,1094.151,808.875Z" transform="translate(-1033.679 -790.666)" fill="#daeef7"/>
    </g>
    <g id="Group_14066" data-name="Group 14066" transform="translate(543.326 555.989)" opacity="0.2" style="mix-blend-mode: screen;isolation: isolate">
      <path id="Path_9601" data-name="Path 9601" d="M1244.892,1054.8a258.378,258.378,0,0,0-30.157.347c-5.432.465-11.167,1.4-15.408,5.444-5.794,5.533-7.184,15.191-11.128,22.667-13.171,24.957-47.625,17.307-65.735,37.458-4.874,5.423-8.163,12.486-11.794,19.137a160.287,160.287,0,0,1-23.26,32.443c-9.168,9.847-20.208,19.748-21.9,34.269-1.436,12.306,4.451,24.015,10.529,34.139,11.829,19.705,25.338,38.053,35.724,58.868,1.466,2.938,2.873,5.931,4.266,8.94l128.867,38.8Z" transform="translate(-1065.289 -1054.535)" fill="#daeef7"/>
    </g>
    <g id="Group_14067" data-name="Group 14067" transform="translate(662.659 532.594)">
      <path id="Path_9602" data-name="Path 9602" d="M1335.354,1005.476a1.777,1.777,0,0,0,0-3.552,1.777,1.777,0,0,0,0,3.552Z" transform="translate(-1333.638 -1001.924)" fill="#daeef7"/>
    </g>
    <g id="Group_14068" data-name="Group 14068" transform="translate(558.348 598.169)">
      <path id="Path_9603" data-name="Path 9603" d="M1100.27,1151.873a1.244,1.244,0,0,0,0-2.486,1.244,1.244,0,0,0,0,2.486Z" transform="translate(-1099.069 -1149.387)" fill="#daeef7"/>
    </g>
    <g id="Group_14069" data-name="Group 14069" transform="translate(542.218 554.241)">
      <path id="Path_9604" data-name="Path 9604" d="M1064.341,1053.8a1.6,1.6,0,0,0,0-3.2,1.6,1.6,0,0,0,0,3.2Z" transform="translate(-1062.796 -1050.604)" fill="#daeef7"/>
    </g>
    <g id="Group_14070" data-name="Group 14070" transform="translate(686.6 617.133)">
      <path id="Path_9605" data-name="Path 9605" d="M1389.879,1197c3.2,0,3.2-4.973,0-4.973s-3.205,4.973,0,4.973Z" transform="translate(-1387.477 -1192.032)" fill="#daeef7"/>
    </g>
    <g id="Group_14071" data-name="Group 14071" transform="translate(569.199 493.442)">
      <path id="Path_9606" data-name="Path 9606" d="M1125.188,917.434a1.777,1.777,0,0,0,0-3.552,1.777,1.777,0,0,0,0,3.552Z" transform="translate(-1123.472 -913.882)" fill="#daeef7"/>
    </g>
    <g id="Group_14072" data-name="Group 14072" transform="translate(642.451 501.651)">
      <path id="Path_9607" data-name="Path 9607" d="M1289.913,935.894a1.777,1.777,0,0,0,0-3.552,1.777,1.777,0,0,0,0,3.552Z" transform="translate(-1288.197 -932.342)" fill="#daeef7"/>
    </g>
    <g id="Group_14073" data-name="Group 14073" transform="translate(689.812 581.849)">
      <path id="Path_9608" data-name="Path 9608" d="M1396.416,1116.24a1.777,1.777,0,0,0,0-3.552,1.777,1.777,0,0,0,0,3.552Z" transform="translate(-1394.7 -1112.688)" fill="#daeef7"/>
    </g>
    <g id="Group_14074" data-name="Group 14074" transform="translate(626.033 583.112)">
      <path id="Path_9609" data-name="Path 9609" d="M1252.991,1119.079a1.777,1.777,0,0,0,0-3.552,1.777,1.777,0,0,0,0,3.552Z" transform="translate(-1251.276 -1115.527)" fill="#daeef7"/>
    </g>
    <g id="Group_14075" data-name="Group 14075" transform="translate(711.914 501.651)">
      <path id="Path_9610" data-name="Path 9610" d="M1446.117,935.894a1.777,1.777,0,0,0,0-3.552,1.777,1.777,0,0,0,0,3.552Z" transform="translate(-1444.401 -932.342)" fill="#daeef7"/>
    </g>
    <g id="Group_14076" data-name="Group 14076" transform="translate(572.872 483.871)">
      <path id="Path_9611" data-name="Path 9611" d="M1132.931,894.846a1.244,1.244,0,0,0,0-2.487,1.244,1.244,0,0,0,0,2.487Z" transform="translate(-1131.73 -892.359)" fill="#daeef7"/>
    </g>
    <g id="Group_14077" data-name="Group 14077" transform="translate(642.623 642.017)">
      <path id="Path_9612" data-name="Path 9612" d="M1290.127,1251.187a1.6,1.6,0,0,0,0-3.2,1.6,1.6,0,0,0,0,3.2Z" transform="translate(-1288.583 -1247.99)" fill="#daeef7"/>
    </g>
    <g id="Group_14078" data-name="Group 14078" transform="translate(684.932 764.525)">
      <path id="Path_9613" data-name="Path 9613" d="M1385.269,1526.675a1.6,1.6,0,0,0,0-3.2,1.6,1.6,0,0,0,0,3.2Z" transform="translate(-1383.725 -1523.478)" fill="#daeef7"/>
    </g>
    <g id="Group_14079" data-name="Group 14079" transform="translate(696.01 776.878)">
      <path id="Path_9614" data-name="Path 9614" d="M1409.838,1553.744a1.244,1.244,0,0,0,0-2.486,1.244,1.244,0,0,0,0,2.486Z" transform="translate(-1408.637 -1551.258)" fill="#daeef7"/>
    </g>
    <g id="Group_14080" data-name="Group 14080" transform="translate(712.772 747.554)">
      <path id="Path_9615" data-name="Path 9615" d="M1447.188,1487.091a.889.889,0,0,0,0-1.776.889.889,0,0,0,0,1.776Z" transform="translate(-1446.33 -1485.315)" fill="#daeef7"/>
    </g>
    <g id="Group_14081" data-name="Group 14081" transform="translate(705.483 617.113)">
      <path id="Path_9616" data-name="Path 9616" d="M1431.139,1194.474a1.244,1.244,0,0,0,0-2.487,1.244,1.244,0,0,0,0,2.487Z" transform="translate(-1429.938 -1191.987)" fill="#daeef7"/>
    </g>
    <g id="Group_14082" data-name="Group 14082" transform="translate(547.098 481.444)">
      <path id="Path_9617" data-name="Path 9617" d="M1075.487,890.453a1.777,1.777,0,0,0,0-3.552,1.777,1.777,0,0,0,0,3.552Z" transform="translate(-1073.771 -886.901)" fill="#daeef7"/>
    </g>
    <g id="Group_14083" data-name="Group 14083" transform="translate(535.615 593.117)">
      <path id="Path_9618" data-name="Path 9618" d="M1049.149,1140.512a1.244,1.244,0,0,0,0-2.486,1.244,1.244,0,0,0,0,2.486Z" transform="translate(-1047.948 -1138.026)" fill="#daeef7"/>
    </g>
    <g id="Group_14084" data-name="Group 14084" transform="translate(632.862 577.961)">
      <path id="Path_9619" data-name="Path 9619" d="M1267.834,1106.431a1.244,1.244,0,0,0,0-2.486,1.244,1.244,0,0,0,0,2.486Z" transform="translate(-1266.633 -1103.945)" fill="#daeef7"/>
    </g>
    <g id="Group_14085" data-name="Group 14085" transform="translate(612.023 565.332)">
      <path id="Path_9620" data-name="Path 9620" d="M1220.974,1078.031a1.244,1.244,0,0,0,0-2.487,1.244,1.244,0,0,0,0,2.487Z" transform="translate(-1219.772 -1075.544)" fill="#daeef7"/>
    </g>
    <g id="Group_14086" data-name="Group 14086" transform="translate(683.381 535.652)">
      <path id="Path_9621" data-name="Path 9621" d="M1381.438,1011.289a1.244,1.244,0,0,0,0-2.486,1.244,1.244,0,0,0,0,2.486Z" transform="translate(-1380.237 -1008.803)" fill="#daeef7"/>
    </g>
    <g id="Group_14087" data-name="Group 14087" transform="translate(682.75 692.26)">
      <path id="Path_9622" data-name="Path 9622" d="M1380.018,1363.459a1.244,1.244,0,0,0,0-2.486,1.244,1.244,0,0,0,0,2.486Z" transform="translate(-1378.817 -1360.973)" fill="#daeef7"/>
    </g>
    <g id="Group_14088" data-name="Group 14088" transform="translate(692.853 699.838)">
      <path id="Path_9623" data-name="Path 9623" d="M1402.739,1380.5a1.244,1.244,0,0,0,0-2.486,1.244,1.244,0,0,0,0,2.486Z" transform="translate(-1401.538 -1378.013)" fill="#daeef7"/>
    </g>
    <g id="Group_14089" data-name="Group 14089" transform="translate(667.594 782.561)">
      <path id="Path_9624" data-name="Path 9624" d="M1345.937,1566.524a1.244,1.244,0,0,0,0-2.486,1.244,1.244,0,0,0,0,2.486Z" transform="translate(-1344.736 -1564.038)" fill="#daeef7"/>
    </g>
    <path id="Path_9625" data-name="Path 9625" d="M1259.658,993.138s-.721,7.535-6.328,6.387c5.607,2.221,6.328,10.19,6.328,10.19s.72-7.535,6.327-6.387C1260.378,1001.106,1259.658,993.138,1259.658,993.138Z" transform="translate(-626.384 -464.452)" fill="#daeef7"/>
    <path id="Path_9626" data-name="Path 9626" d="M1384.977,1612.87s-.721,7.535-6.328,6.387c5.607,2.221,6.328,10.19,6.328,10.19s.72-7.536,6.327-6.388C1385.7,1620.839,1384.977,1612.87,1384.977,1612.87Z" transform="translate(-695.974 -808.593)" fill="#daeef7"/>
    <path id="Path_9627" data-name="Path 9627" d="M1245.132,874.343s-.574,6-5.039,5.087c4.465,1.768,5.039,8.115,5.039,8.115s.574-6,5.039-5.087C1245.706,880.689,1245.132,874.343,1245.132,874.343Z" transform="translate(-619.033 -398.484)" fill="#daeef7"/>
    <path id="Path_9628" data-name="Path 9628" d="M1108,993.138s-.495,5.167-4.339,4.379c3.844,1.523,4.339,6.987,4.339,6.987s.494-5.167,4.339-4.379C1108.5,998.6,1108,993.138,1108,993.138Z" transform="translate(-543.274 -464.452)" fill="#daeef7"/>
    <path id="Path_9629" data-name="Path 9629" d="M1417.464,1307.251s-.494,5.167-4.339,4.38c3.845,1.523,4.339,6.987,4.339,6.987s.494-5.168,4.339-4.38C1417.958,1312.716,1417.464,1307.251,1417.464,1307.251Z" transform="translate(-715.119 -638.881)" fill="#daeef7"/>
    <path id="Path_9630" data-name="Path 9630" d="M1373.528,921.426s-.356,3.731-3.133,3.163c2.777,1.1,3.133,5.046,3.133,5.046s.357-3.732,3.134-3.163C1373.885,925.372,1373.528,921.426,1373.528,921.426Z" transform="translate(-691.391 -424.629)" fill="#daeef7"/>
    <path id="Path_9631" data-name="Path 9631" d="M1428.726,1075.5s-.357,3.732-3.134,3.163c2.777,1.1,3.134,5.046,3.134,5.046s.357-3.732,3.134-3.163C1429.083,1079.446,1428.726,1075.5,1428.726,1075.5Z" transform="translate(-722.042 -510.188)" fill="#daeef7"/>
    <path id="Path_9632" data-name="Path 9632" d="M1323.33,1075.5s-.357,3.732-3.134,3.163c2.776,1.1,3.134,5.046,3.134,5.046s.357-3.732,3.133-3.163C1323.687,1079.446,1323.33,1075.5,1323.33,1075.5Z" transform="translate(-663.515 -510.188)" fill="#daeef7"/>
    <path id="Path_9633" data-name="Path 9633" d="M1109.509,824.815s-.357,3.732-3.133,3.163c2.777,1.1,3.133,5.046,3.133,5.046s.357-3.731,3.134-3.163C1109.866,828.762,1109.509,824.815,1109.509,824.815Z" transform="translate(-544.779 -370.981)" fill="#daeef7"/>
    <path id="Path_9634" data-name="Path 9634" d="M1171.967,1169.646s-.3,3.174-2.667,2.691c2.362.936,2.667,4.293,2.667,4.293s.3-3.175,2.666-2.691C1172.271,1173,1171.967,1169.646,1171.967,1169.646Z" transform="translate(-579.722 -562.468)" fill="#daeef7"/>
    <g id="Group_14090" data-name="Group 14090" transform="translate(527.315 436.02)">
      <path id="Path_9635" data-name="Path 9635" d="M1226.853,1200.138l-197.568-59.49V784.755l197.568,59.49Zm-193.661-62.395,189.753,57.138V847.149l-189.753-57.138Z" transform="translate(-1029.285 -784.755)" fill="#07085b"/>
    </g>
    <g id="Group_14094" data-name="Group 14094" transform="translate(148.799 631.82)">
      <g id="Group_14091" data-name="Group 14091" transform="translate(0.982 116.383)">
        <path id="Path_9636" data-name="Path 9636" d="M351.626,1722.61l-171.32-60.059L315.995,1587.7l175.235,62.654-131.735,71.627A9.734,9.734,0,0,1,351.626,1722.61Z" transform="translate(-180.306 -1542.816)" fill="#5fd2fa"/>
        <path id="Path_9637" data-name="Path 9637" d="M205.232,1609.772s25.77,29.8-4.032,62.409l161.412,60.656a11.029,11.029,0,0,0,11.549-2.4l5.854-5.665s20.336-55.748,20.336-57.151-40.672-34.36-40.672-34.36-66.968-8.065-68.721-8.065S205.232,1609.772,205.232,1609.772Z" transform="translate(-191.909 -1555.075)" fill="#daeef7"/>
        <path id="Path_9638" data-name="Path 9638" d="M455.147,1796.481c-1.052,0-119.911-39.27-119.911-39.27s118.508,43.083,118.859,42.031S455.147,1796.481,455.147,1796.481Z" transform="translate(-266.34 -1636.949)" fill="#daeef7" style="mix-blend-mode: multiply;isolation: isolate"/>
        <path id="Path_9639" data-name="Path 9639" d="M189.767,1606.224v3.681l170.4,58.377s10.518,13.149,9.467,31.03-4.925,32.009-10.532,32.2c0,0,3.542.292,5.328-.814a70.431,70.431,0,0,0,5.949-4.832s7.056-31.819,7.407-32.608-3.682-26.735-6.4-28.663-.438-5-13.323-7.363-114.389-47.947-116.843-47.333-23.491-.35-24.631,0S189.767,1606.224,189.767,1606.224Z" transform="translate(-185.56 -1553.105)" fill="#4dbce3"/>
        <path id="Path_9640" data-name="Path 9640" d="M578.866,1656.415s21.694,36.82,0,66.36L723.32,1644.5s17.005-34.886-4.909-56.8Z" transform="translate(-401.629 -1542.816)" fill="#4dbce3"/>
        <path id="Path_9641" data-name="Path 9641" d="M362.8,1600.373l-173.03-60.481,156.2-53.119,156.375,44.879Z" transform="translate(-185.56 -1486.773)" fill="#5fd2fa"/>
        <path id="Path_9642" data-name="Path 9642" d="M359.34,1714.328l-125.918-43.811q.066,1.382.039,2.814Z" transform="translate(-209.802 -1588.807)" fill="#daeef7" style="mix-blend-mode: multiply;isolation: isolate"/>
        <path id="Path_9643" data-name="Path 9643" d="M228.637,1699.9q-.522,1.93-1.257,3.91l92.4,30.167Z" transform="translate(-206.447 -1605.123)" fill="#daeef7" style="mix-blend-mode: multiply;isolation: isolate"/>
      </g>
      <g id="Group_14092" data-name="Group 14092" transform="translate(0 55.53)">
        <path id="Path_9644" data-name="Path 9644" d="M347.736,1553.717l174.774-51.9-131.382-64.684-178.839,54.139L339.9,1553.169A10.964,10.964,0,0,0,347.736,1553.717Z" transform="translate(-197.084 -1398.357)" fill="#2d6ae0"/>
        <path id="Path_9645" data-name="Path 9645" d="M640.542,1456.213s-27.485,25.752.442,53.928l-164.9,52.413a11.934,11.934,0,0,1-11.411-2.073l-5.527-4.894s-17.129-48.172-17.048-49.384,42.648-29.691,42.648-29.691,67.432-6.968,69.185-6.968S640.542,1456.213,640.542,1456.213Z" transform="translate(-324.698 -1408.95)" fill="#daeef7"/>
        <path id="Path_9646" data-name="Path 9646" d="M480.171,1617.548c1.052,0,122.17-33.933,122.17-33.933s-120.987,37.228-121.277,36.318S480.171,1617.548,480.171,1617.548Z" transform="translate(-345.842 -1479.697)" fill="#daeef7" style="mix-blend-mode: multiply;isolation: isolate"/>
        <path id="Path_9647" data-name="Path 9647" d="M668,1453.147l-.212,3.181-173.758,50.444s-11.275,11.362-11.251,26.813,3.084,27.66,8.679,27.828c0,0-3.56.253-5.282-.7a63.033,63.033,0,0,1-5.671-4.175s-5.226-27.494-5.531-28.176,5.22-23.1,8.048-24.768.726-4.317,13.747-6.362,117.147-41.431,119.566-40.9,23.511-.3,24.631,0S668,1453.147,668,1453.147Z" transform="translate(-342.949 -1407.247)" fill="#2d6ae0"/>
        <path id="Path_9648" data-name="Path 9648" d="M326.64,1496.519s-23.812,31.816-3.817,57.341l-139.951-67.642s-15-30.145,8.176-49.081Z" transform="translate(-178.099 -1398.357)" fill="#2d6ae0"/>
        <path id="Path_9649" data-name="Path 9649" d="M342.811,1448.093,519.32,1395.83l-153.144-45.9-158.957,38.78Z" transform="translate(-194.269 -1349.931)" fill="#4299f7"/>
        <path id="Path_9650" data-name="Path 9650" d="M572.876,1546.56,701.314,1508.7q-.145,1.195-.2,2.431Z" transform="translate(-397.321 -1438.098)" fill="#daeef7" style="mix-blend-mode: multiply;isolation: isolate"/>
        <path id="Path_9651" data-name="Path 9651" d="M746.959,1534.09a33.121,33.121,0,0,0,1.032,3.379l-94.139,26.068Z" transform="translate(-442.288 -1452.196)" fill="#daeef7" style="mix-blend-mode: multiply;isolation: isolate"/>
      </g>
      <path id="Path_9652" data-name="Path 9652" d="M244.9,1460.3s-23.562,24.577-5.145,51.657l10.424,4.994s-13.4-32.393,6.512-51.488Z" transform="translate(-208.43 -1355.69)" fill="#06bfad" opacity="0.3" style="mix-blend-mode: multiply;isolation: isolate"/>
      <g id="Group_14093" data-name="Group 14093" transform="translate(43.713)">
        <path id="Path_9653" data-name="Path 9653" d="M425.577,1418.505,280,1369.1l106-61.3,149,51.532-102.987,58.655A7.865,7.865,0,0,1,425.577,1418.505Z" transform="translate(-278.396 -1271.008)" fill="#f4a640"/>
        <path id="Path_9654" data-name="Path 9654" d="M293.54,1325.7s23.477,24.468,1.426,51.194l137.47,49.883a8.651,8.651,0,0,0,9.324-1.958l4.387-4.643s12.5-45.715,12.394-46.866-36.089-28.218-36.089-28.218-55.735-6.668-57.178-6.669S293.54,1325.7,293.54,1325.7Z" transform="translate(-285.917 -1280.945)" fill="#daeef7"/>
        <path id="Path_9655" data-name="Path 9655" d="M509.3,1479.052c-.866,0-101.685-32.307-101.685-32.307s100.821,35.433,101.029,34.57S509.3,1479.052,509.3,1479.052Z" transform="translate(-349.261 -1348.163)" fill="#daeef7" style="mix-blend-mode: multiply;isolation: isolate"/>
        <path id="Path_9656" data-name="Path 9656" d="M276.4,1322.773l.28,3.02,144.7,48.021s9.657,10.794,10.151,25.462-1.62,26.255-6.221,26.41c0,0,2.938.243,4.324-.664a50.364,50.364,0,0,0,4.529-3.959s3.389-26.1,3.618-26.743-5.063-21.933-7.446-23.518-.74-4.1-11.526-6.05-97.8-39.421-99.773-38.92-19.363-.305-20.274-.019S276.4,1322.773,276.4,1322.773Z" transform="translate(-276.397 -1279.32)" fill="#f4a640"/>
        <path id="Path_9657" data-name="Path 9657" d="M607.007,1364.385s20.656,30.22,5.045,54.436L725,1354.717s11.345-28.6-8.358-46.6Z" transform="translate(-459.987 -1271.183)" fill="#f4a640"/>
        <path id="Path_9658" data-name="Path 9658" d="M423.417,1318.26,276.4,1268.512l124.532-43.453L533.054,1262Z" transform="translate(-276.397 -1225.059)" fill="#feb546"/>
        <path id="Path_9659" data-name="Path 9659" d="M424.191,1411.586l-106.974-36.037q.16,1.134.246,2.308Z" transform="translate(-299.065 -1308.627)" fill="#daeef7" style="mix-blend-mode: multiply;isolation: isolate"/>
        <path id="Path_9660" data-name="Path 9660" d="M315.883,1399.647q-.283,1.583-.737,3.207l78.351,24.819Z" transform="translate(-297.915 -1322.009)" fill="#daeef7" style="mix-blend-mode: multiply;isolation: isolate"/>
      </g>
    </g>
    <path id="Path_9661" data-name="Path 9661" d="M472.4,1354.937l-85.1-29.849,16.821-7.323,90.152,26.723Z" transform="translate(-145.471 -644.719)" fill="#f4a640"/>
    <path id="Path_9662" data-name="Path 9662" d="M1038.072,739.364l220.442,58.953,3.339,388.662-7.219,5.709V800.053Z" transform="translate(-506.849 -323.529)" fill="#b6d5e0" style="mix-blend-mode: multiply;isolation: isolate"/>
    <g id="Group_14096" data-name="Group 14096" transform="translate(519.834 858.721)">
      <g id="Group_14095" data-name="Group 14095">
        <path id="Path_9663" data-name="Path 9663" d="M1015.086,1787.659a4.67,4.67,0,0,0,5.327-1.988,135.764,135.764,0,0,1,27.225-34.567c.609-.547,3.492-2.476,15.009-4.3,8.165-1.3,19.249-2.325,32.945-3.06,23.25-1.247,54.236-1.67,92.1-1.255,64.562.707,127.492,3.643,128.12,3.672l.876-7.019c-.63-.03-63.737-2.974-128.474-3.683-38.076-.416-69.278.01-92.739,1.269-40.513,2.174-50.022,6.33-53.779,9.708A141.73,141.73,0,0,0,1012.855,1783c-1.014,1.87.008,4,2.231,4.655Z" transform="translate(-1012.462 -1735.301)" fill="#e03268"/>
      </g>
    </g>
    <g id="Group_14097" data-name="Group 14097" transform="translate(550.139 841.78)">
      <path id="Path_9664" data-name="Path 9664" d="M1361.021,1788.433c-2.2.294-4.2-.9-4.567-2.715a108.764,108.764,0,0,0-15.548-37.713c-.42-.623-2.62-2.926-13.282-6.386a307.848,307.848,0,0,0-31.194-7.778c-22.3-4.6-52.429-9.516-89.537-14.615-63.271-8.7-125.661-14.977-126.284-15.04L1082,1697.2c.624.063,63.189,6.362,126.632,15.081,37.315,5.129,67.648,10.082,90.156,14.722,38.867,8.012,46.825,13.453,49.416,17.3a113.558,113.558,0,0,1,16.486,39.907c.392,1.974-1.285,3.9-3.665,4.221Z" transform="translate(-1080.609 -1697.205)" fill="#ce1b5c"/>
    </g>
    <path id="Path_9665" data-name="Path 9665" d="M1098.563,1678.513l73.867-66.184L1197.575,1630l-74.927,67.265Z" transform="translate(-540.441 -808.293)" fill="#daeef7" opacity="0.5"/>
    <path id="Path_9666" data-name="Path 9666" d="M1234.7,1661.244l-70.641,64.372,5.477,1.987,68.185-62.3Z" transform="translate(-576.811 -835.456)" fill="#daeef7" opacity="0.5"/>
    <path id="Path_9667" data-name="Path 9667" d="M1452.889,1707.448s67.437-64.229,68.088-64.323,21.608,9.367,21.608,9.367l-72.5,70.619Z" transform="translate(-737.2 -825.394)" fill="#daeef7" opacity="0.5"/>
    <path id="Path_9668" data-name="Path 9668" d="M1500.065,1739.851c.772-.843,70.172-69.35,70.172-69.35l3.532,4.4-69.972,67.12Z" transform="translate(-763.397 -840.596)" fill="#daeef7" opacity="0.5"/>
    <ellipse id="Ellipse_195" data-name="Ellipse 195" cx="54.209" cy="45.411" rx="54.209" ry="45.411" transform="translate(550.112 811.109) rotate(-8.123)" fill="#daeef7" opacity="0.3"/>
    <ellipse id="Ellipse_196" data-name="Ellipse 196" cx="54.209" cy="45.411" rx="54.209" ry="45.411" transform="translate(704.819 822.487) rotate(-8.121)" fill="#daeef7" opacity="0.3"/>
    <path id="Path_9669" data-name="Path 9669" d="M1347.2,1662.421l-1.071-.079a41.2,41.2,0,0,0-11.58-29.9c-9.208-9.838-22.59-15.868-37.679-16.978a66.5,66.5,0,0,0-42.216,11.1c-10.02,6.83-17.1,15.935-20.422,26.111-10.347-7.844-22-7.942-30.482-6.4a58.511,58.511,0,0,0-12.3,3.74,41.261,41.261,0,0,0-11.6-28.955c-9.208-9.838-22.589-15.868-37.68-16.977a66.494,66.494,0,0,0-42.215,11.1c-10.48,7.142-17.739,16.773-20.856,27.515l-1.07-.079c-4.168-.307-8.01,2.312-8.581,5.848h0c-.571,3.536,2.345,6.651,6.513,6.958l1.451.106a41.391,41.391,0,0,0,11.593,27.44c9.207,9.838,22.589,15.868,37.679,16.978a66.5,66.5,0,0,0,42.216-11.1c11.274-7.684,18.823-18.25,21.494-29.979l.046.056a48.393,48.393,0,0,1,15.028-5.438c10.71-1.877,19.664.935,26.612,8.359l.237-.162c-1.222,11.938,2.773,23.455,11.393,32.667,9.208,9.838,22.589,15.867,37.68,16.977a66.506,66.506,0,0,0,42.216-11.1c9.69-6.6,16.626-15.339,20.082-25.11l1.451.107c4.168.306,8.01-2.311,8.581-5.848S1351.372,1662.727,1347.2,1662.421Zm-162.182-6.681c-3.824,23.672-29.634,41.262-57.534,39.21s-47.487-22.981-43.662-46.654,29.634-41.262,57.534-39.209S1188.847,1632.067,1185.023,1655.74Zm154.706,11.379c-3.824,23.672-29.634,41.262-57.534,39.209s-47.487-22.98-43.663-46.653c.14-.867.313-1.724.511-2.574l.049-.033-.033-.034c5.244-22.324,30.156-38.543,57.007-36.568C1323.967,1622.518,1343.553,1643.446,1339.729,1667.119Z" transform="translate(-524.231 -803.612)" fill="#ff5b7e"/>
    <g id="Group_14098" data-name="Group 14098" transform="translate(257.242 510.832)">
      <path id="Path_9670" data-name="Path 9670" d="M775.588,1509.518l-3.521,7.853a1.287,1.287,0,0,0,.648,1.7l18.388,8.243a1.459,1.459,0,0,0,1.815-2.132L785.8,1514.1S780.177,1515.126,775.588,1509.518Z" transform="translate(-616.315 -1262.033)" fill="#333"/>
      <path id="Path_9671" data-name="Path 9671" d="M597.228,1281.873s-5.665,26.656,20.036,32.984,58.135,6.972,58.135,6.972l.6,62.09,13.528,1.549s40.367-83.668-7.156-100.147l-43.483-2.531-17.819-2.409s-17.83-5.618-18.1-4.779S597.627,1282.326,597.228,1281.873Z" transform="translate(-518.993 -1132.092)" fill="#9f57de"/>
      <path id="Path_9672" data-name="Path 9672" d="M720.159,1034.817c3.867-4.882,2.383-8.976-2.863-16.214-7.962-10.986-17.75-12.632-26.124-19.977-2.931-2.57-7.774-10.7-10.96-16.379a83.994,83.994,0,0,1-4.332-9.089c-7.12-17.242-23.755-14.436-23.755-14.436s.857,21.81.922,22.42a5.894,5.894,0,0,0,1.748.958c-3.32,3.271-8.688,8.582-9.747,10.341-1.54,2.559-7.859,13.657-7.859,13.657s10.952,30.407,11.983,38.91c.545,4.5,7.33,5.788,14.985,6.214,4.844,9.321,11.565,18.763,18.721,18.143,13.918-1.205,13.427-6.584,17.982-11s14.244.227,20.477-7.346C726.1,1045.24,717.748,1037.861,720.159,1034.817Z" transform="translate(-541.477 -956.079)" fill="#333"/>
      <path id="Path_9673" data-name="Path 9673" d="M688.042,1166.634s-4.845,49.21-.287,55.558h-18.6V1163.7Z" transform="translate(-559.231 -1070)" fill="#ffc0bb"/>
      <path id="Path_9674" data-name="Path 9674" d="M575.285,980.042s-5.439,8.181-8.213,11.425c-6.981,8.161-7.88,5.6-12.218,12.619-4.683,7.576.055,12.319,2.748,14.5s-1.813,10.26,3.2,14.787c6.568,5.927,12.644.338,17.163,3.658s5.507,8.241,16.217,7.312,10.606-35.95,10.606-35.95-8.766-18.566-9.114-18.72S575.285,980.042,575.285,980.042Z" transform="translate(-494.657 -968.012)" fill="#333"/>
      <path id="Path_9675" data-name="Path 9675" d="M629.985,1088.2s-17.876-3.289-26.1-3.011,4.982,21.652,4.982,21.652l13.425.3s8.23-9.192,7.689-10.261.025-8.083.025-8.083Z" transform="translate(-521.489 -1026.39)" fill="#ffc0bb"/>
      <path id="Path_9676" data-name="Path 9676" d="M624.207,1053.62l-4.715,14.311s4.105,8.488,16.677,4.826c0,0-1.434-2.964.49-9.067C638.624,1057.453,624.207,1053.62,624.207,1053.62Z" transform="translate(-531.651 -1008.87)" fill="#ffc0bb"/>
      <path id="Path_9677" data-name="Path 9677" d="M627.332,1053.62l-2.213,6.685c1.318,4.886,5.6,8.214,13.665,9.246a19.4,19.4,0,0,1,1-5.861C641.749,1057.453,627.332,1053.62,627.332,1053.62Z" transform="translate(-534.776 -1008.87)" fill="#fc8d84" opacity="0.6"/>
      <path id="Path_9678" data-name="Path 9678" d="M694.179,1026.333c-1.02,2.324-.34,4.87,1.519,5.686s4.193-.406,5.214-2.73.34-4.87-1.519-5.686S695.2,1024.009,694.179,1026.333Z" transform="translate(-572.862 -992.061)" fill="#f99893"/>
      <path id="Path_9679" data-name="Path 9679" d="M640.977,1014.131a19.123,19.123,0,0,0,1.561-3.174,36.336,36.336,0,0,0,2.205-8.977c.074-.6.183-1.193.3-1.784a19.634,19.634,0,1,0-38.867-4.43,4.244,4.244,0,0,0-3.813-.4c-2.357.979-3.276,4.16-2.053,7.106s4.125,4.541,6.481,3.563a3.742,3.742,0,0,0,.894-.532c.723,9.635,8.4,17.262,17.846,17.358a17.617,17.617,0,0,0,12.08-4.657,8.708,8.708,0,0,0,.68-.6A17.013,17.013,0,0,0,640.977,1014.131Z" transform="translate(-520.7 -966.132)" fill="#ffc0bb"/>
      <path id="Path_9680" data-name="Path 9680" d="M679.4,1022.029a12.015,12.015,0,0,0-.629,3.309,9.246,9.246,0,0,0,.06,1.726,4.376,4.376,0,0,0,.594,1.763l.163.209.146.18a1.78,1.78,0,0,1,.194.247,1.28,1.28,0,0,1,.214.539,1.514,1.514,0,0,1-.376,1.16,4.65,4.65,0,0,1-2.73,1.373,3.8,3.8,0,0,0,3.336-.8,2.3,2.3,0,0,0,.778-1.829,1.783,1.783,0,0,0-.106-.527,2.082,2.082,0,0,0-.221-.48,2.657,2.657,0,0,0-.309-.407,1.675,1.675,0,0,1-.111-.145l-.09-.117a4.158,4.158,0,0,1-.487-1.34,14.006,14.006,0,0,1-.224-1.57C679.506,1024.248,679.464,1023.151,679.4,1022.029Z" transform="translate(-563.605 -991.327)" fill="#f99893"/>
      <path id="Path_9681" data-name="Path 9681" d="M663.125,1024.995a1.714,1.714,0,1,1-1.7-1.731A1.714,1.714,0,0,1,663.125,1024.995Z" transform="translate(-553.978 -992.013)" fill="#333"/>
      <path id="Path_9682" data-name="Path 9682" d="M691.749,1025.7a1.714,1.714,0,1,1-1.7-1.731A1.714,1.714,0,0,1,691.749,1025.7Z" transform="translate(-569.873 -992.403)" fill="#333"/>
      <path id="Path_9683" data-name="Path 9683" d="M666.835,1052.462a5.481,5.481,0,0,1,4.525.6s2.372-1.484,4.24-.067a4.5,4.5,0,0,1-4.763,3.294A4.027,4.027,0,0,1,666.835,1052.462Z" transform="translate(-557.941 -1008.093)" fill="#f99893" opacity="0.3" style="mix-blend-mode: multiply;isolation: isolate"/>
      <path id="Path_9684" data-name="Path 9684" d="M662.246,1049.918a13.458,13.458,0,0,0,2.865,1.76,10.091,10.091,0,0,0,3.2.855,8.605,8.605,0,0,0,3.273-.363,12.081,12.081,0,0,0,3-1.5,10.227,10.227,0,0,1-1.355,1.039,9.462,9.462,0,0,1-1.539.771,8.062,8.062,0,0,1-1.679.431,8.593,8.593,0,0,1-1.738.046,8.923,8.923,0,0,1-3.3-.986A9.755,9.755,0,0,1,662.246,1049.918Z" transform="translate(-555.393 -1006.814)" fill="#f99893"/>
      <path id="Path_9685" data-name="Path 9685" d="M657.045,1013.293a17.647,17.647,0,0,0-2.526-.51,8.7,8.7,0,0,0-2.381.035,8.045,8.045,0,0,0-2.266.691c-.39.138-.727.384-1.12.566-.378.206-.727.463-1.151.668a7.193,7.193,0,0,1,.719-1.17,5.833,5.833,0,0,1,1-.971,5.534,5.534,0,0,1,2.616-1.119,5.785,5.785,0,0,1,2.828.271A5.271,5.271,0,0,1,657.045,1013.293Z" transform="translate(-547.26 -985.434)" fill="#333"/>
      <path id="Path_9686" data-name="Path 9686" d="M686.434,1013.9a5.272,5.272,0,0,1,2.45-1.249,5.776,5.776,0,0,1,2.84.075,5.535,5.535,0,0,1,2.461,1.428,5.863,5.863,0,0,1,.876,1.086,7.2,7.2,0,0,1,.571,1.249c-.4-.255-.711-.553-1.061-.8-.369-.228-.672-.513-1.043-.7a8.054,8.054,0,0,0-2.165-.962,8.712,8.712,0,0,0-2.359-.325A17.635,17.635,0,0,0,686.434,1013.9Z" transform="translate(-568.824 -986.043)" fill="#333"/>
      <path id="Path_9687" data-name="Path 9687" d="M608.855,1167.493s-3.49,10.2-4.124,15.622a71.51,71.51,0,0,0,4.124,32.671c3.907,10.744-29.2,4.776-29.853,4.45s-28-10.907-28-10.907l-2.061-21.09-3.148-20.746,1.465-12.209Z" transform="translate(-490.726 -1065.325)" fill="#5fd2fa"/>
      <path id="Path_9688" data-name="Path 9688" d="M487.641,1116.007s4.237.368,3.777,7.738-3.9,21.4-3.9,21.4-33.418,64.224-40.742,70.471a2.309,2.309,0,0,1-1.42.546l-23.395.686h0a7.063,7.063,0,0,1,3.872-2.632l10.5-2.785a1.563,1.563,0,0,0,.97-.76l3.363-6.137,25.344-67.6c2.585-6.023,8.736-9.465,12.962-14.475C482.055,1118.8,485.424,1115.645,487.641,1116.007Z" transform="translate(-421.96 -1043.499)" fill="#ffc0bb"/>
      <path id="Path_9689" data-name="Path 9689" d="M577.876,1088.13s-12.152,14.183-26.1-3.012c0,0-15.234-1.241-26.466,6.735s-17.958,25.893-17.958,25.893,20.349,10.256,25.4,10.744h56.487a50.173,50.173,0,0,0,16.93-4.883S604.736,1095.13,577.876,1088.13Z" transform="translate(-469.381 -1026.323)" fill="#5fd2fa"/>
      <path id="Path_9690" data-name="Path 9690" d="M541.8,1134.565c-.581,1.74-1.1,3.5-1.618,5.26s-1,3.531-1.464,5.306c-.447,1.78-.9,3.56-1.288,5.357s-.765,3.6-1.054,5.421l.43-.432a10.788,10.788,0,0,1-1.865-.013c-.642-.042-1.284-.137-1.926-.229-1.279-.228-2.562-.472-3.823-.826l-.949-.251-.94-.288c-.625-.2-1.256-.377-1.874-.6l-1.863-.643-1.84-.712c-1.232-.462-2.434-1.005-3.654-1.5l-3.6-1.641-3.569-1.727c-1.174-.607-2.352-1.212-3.541-1.8,1.119.708,2.25,1.4,3.384,2.087q1.716,1,3.46,1.966c1.171.623,2.355,1.226,3.543,1.821l1.809.839c.6.281,1.2.564,1.824.808a57.354,57.354,0,0,0,7.542,2.658l.969.261.981.223c.65.163,1.318.263,1.98.379.668.091,1.336.185,2.016.225a11.44,11.44,0,0,0,2.1-.012l.371-.042.06-.39c.549-3.6,1.28-7.186,2.042-10.765l1.163-5.369Z" transform="translate(-469.381 -1053.819)" fill="#daeef7"/>
      <path id="Path_9691" data-name="Path 9691" d="M681.382,1125.3q1.194,3.125,2.166,6.284a55.027,55.027,0,0,1,1.57,6.395,30.736,30.736,0,0,1,.434,3.246,23.767,23.767,0,0,1,.081,3.261c-.081,2.175-3.3,12.406-4.251,14.432,1.338-1.8,4.847-12.115,5.083-14.364a23.467,23.467,0,0,0-.295-6.762c-.211-1.108-.458-2.206-.765-3.287s-.661-2.147-1.071-3.19A34.315,34.315,0,0,0,681.382,1125.3Z" transform="translate(-566.019 -1048.674)" fill="#daeef7"/>
      <path id="Path_9692" data-name="Path 9692" d="M606.625,982.622s20.871-5.034,30.841-19.216c0,0,.173-12.914-18.986-9.985C599.864,956.268,595.506,974.384,606.625,982.622Z" transform="translate(-521.147 -952.989)" fill="#333"/>
      <path id="Path_9693" data-name="Path 9693" d="M722,1507.416l-3.521,7.853a1.287,1.287,0,0,0,.648,1.7l18.388,8.243a1.458,1.458,0,0,0,1.814-2.132l-7.115-11.086S726.594,1513.025,722,1507.416Z" transform="translate(-586.559 -1260.866)" fill="#333"/>
      <path id="Path_9694" data-name="Path 9694" d="M549.206,1273.626a23.869,23.869,0,0,0-2.622,24.941c2.769,5.613,8,10.845,17.634,13.218,25.7,6.329,58.135,6.972,58.135,6.972l.6,62.09,13.528,1.549s40.367-83.668-7.156-100.147l-43.483-2.531-17.818-2.408s-17.83-5.618-18.1-4.779A5.6,5.6,0,0,1,549.206,1273.626Z" transform="translate(-489.847 -1130.386)" fill="#b66bf7"/>
      <path id="Path_9695" data-name="Path 9695" d="M727.138,1373.424c-.69-.125-1.38-.242-2.06-.4s-1.353-.342-2.018-.542c-.333-.1-.67-.216-1-.338a7.542,7.542,0,0,0,1.013-.291,8.564,8.564,0,0,0,1.848-.946,10.43,10.43,0,0,0,1.546-1.36,10.287,10.287,0,0,0,1.211-1.638l-.685.744c-.245.23-.474.474-.73.688a10.1,10.1,0,0,1-1.592,1.181,9.543,9.543,0,0,1-1.774.832,6.847,6.847,0,0,1-1.881.38l-1.118.04.992.461a13.061,13.061,0,0,0,2.033.711,20.245,20.245,0,0,0,2.08.446c.7.114,1.4.213,2.1.264s1.409.086,2.114.084C728.525,1373.635,727.828,1373.549,727.138,1373.424Z" transform="translate(-587.408 -1183.395)" fill="#daeef7"/>
    </g>
    <path id="Path_9702" data-name="Path 9702" d="M346.468,1412.982s-8.776,8.9-4.774,20.909c0,0,2.668-6.226,5.336-8,0,0-.445,7.56,2.668,10.672,0,0,2.748-16.752,11.157-18.381Z" transform="translate(-119.565 -697.594)" fill="#ff5b7e"/>
    <path id="Path_9703" data-name="Path 9703" d="M578.866,1628.17s5.4,6.318,4.951,14.323c0,0,2.963-4.095,3.7-7.161a11.245,11.245,0,0,1,4.744,4.938s3.324-8.477-.117-15.8Z" transform="translate(-251.849 -815.034)" fill="#feb546"/>
    <path id="Path_9704" data-name="Path 9704" d="M383.189,1725.514s-9.111,12.223-6,31.789c0,0,3.113-8,10.228-12.451,0,0,3.113,12.9,4.892,17.343,0,0,7.109-25.947,15.561-28.093Z" transform="translate(-139.497 -871.145)" fill="#f6c644"/>
  </g>
</svg>
