<svg id="linkedin_1_" data-name="linkedin (1)" xmlns="http://www.w3.org/2000/svg" width="18.754" height="18.754" viewBox="0 0 18.754 18.754">
  <path id="Path_332" data-name="Path 332" d="M20.6,20.409h0V13.531c0-3.365-.724-5.957-4.658-5.957A4.084,4.084,0,0,0,12.273,9.6h-.055V7.888H8.489V20.409h3.884v-6.2c0-1.632.309-3.211,2.331-3.211,1.992,0,2.022,1.863,2.022,3.316v6.1Z" transform="translate(-1.856 -1.656)" fill="#6160f6"/>
  <path id="Path_333" data-name="Path 333" d="M.4,7.977H4.284V20.5H.4Z" transform="translate(-0.087 -1.744)" fill="#6160f6"/>
  <path id="Path_334" data-name="Path 334" d="M2.252,0A2.263,2.263,0,1,0,4.5,2.252,2.253,2.253,0,0,0,2.252,0Z" fill="#6160f6"/>
</svg>
