<svg xmlns="http://www.w3.org/2000/svg" width="25.003" height="20.315" viewBox="0 0 25.003 20.315">
  <path id="Logo_00000038394049246713568260000012923108920998390947_" d="M22.443,7.307c.015.22.015.441.015.663a14.5,14.5,0,0,1-14.6,14.6v0A14.519,14.519,0,0,1,0,20.262a10.394,10.394,0,0,0,1.221.074,10.294,10.294,0,0,0,6.371-2.2A5.136,5.136,0,0,1,2.8,14.572a5.132,5.132,0,0,0,2.316-.088A5.13,5.13,0,0,1,1,9.456V9.391a5.085,5.085,0,0,0,2.328.642A5.133,5.133,0,0,1,1.74,3.186a14.566,14.566,0,0,0,10.572,5.36,5.134,5.134,0,0,1,8.742-4.679,10.286,10.286,0,0,0,3.258-1.245A5.154,5.154,0,0,1,22.056,5.46,10.3,10.3,0,0,0,25,4.651,10.426,10.426,0,0,1,22.443,7.307Z" transform="translate(0 -2.25)" fill="#6160f6"/>
</svg>
