<svg xmlns="http://www.w3.org/2000/svg" width="73.894" height="72.417" viewBox="0 0 73.894 72.417">
  <g id="piggy-bank" transform="translate(0 -5.115)">
    <g id="Group_14104" data-name="Group 14104" transform="translate(55.02 43.433)">
      <g id="Group_14103" data-name="Group 14103">
        <path id="Path_9709" data-name="Path 9709" d="M387.185,270.613a1.075,1.075,0,0,0-1.075,1.075,1.365,1.365,0,1,1-2.731,0,1.075,1.075,0,1,0-2.151,0,3.516,3.516,0,1,0,7.032,0A1.075,1.075,0,0,0,387.185,270.613Z" transform="translate(-381.228 -270.613)" fill="#5fd2fa"/>
      </g>
    </g>
    <g id="Group_14106" data-name="Group 14106" transform="translate(0 5.115)">
      <g id="Group_14105" data-name="Group 14105">
        <path id="Path_9710" data-name="Path 9710" d="M71.071,43.608l-3.027-.97a1.266,1.266,0,0,1-.817-.828,19.515,19.515,0,0,0-2.861-5.659A20.768,20.768,0,0,0,62.455,33.9a26.674,26.674,0,0,0,.658-6.091c-.045-2.74-.593-4.347-1.674-4.913-.582-.305-2.355-1.233-11.947,3.158a3.49,3.49,0,0,0-.636.379c-.647-.174-1.308-.335-1.973-.479-.08-.017-.163-.033-.243-.05a14.649,14.649,0,0,0,1.317-5.446,1.075,1.075,0,0,0-2.149-.1,12.512,12.512,0,0,1-8.186,11.188,31.186,31.186,0,0,0-8.656,0A12.522,12.522,0,1,1,44.486,14.16a1.075,1.075,0,0,0,1.921-.967A14.679,14.679,0,1,0,25.5,32.235h0q-1,.261-1.988.588a1.075,1.075,0,0,0,.682,2.04,28.86,28.86,0,0,1,18.189,0,1.075,1.075,0,0,0,.682-2.04q-.984-.329-1.988-.588h0a14.664,14.664,0,0,0,4.464-4.365c.3.058.591.118.881.181q.579.126,1.152.268c-.012.047-.024.093-.034.141a12.825,12.825,0,0,0,.1,6.542A7.786,7.786,0,0,0,50.5,39.012a9.046,9.046,0,0,0,5.293,1.68,7.1,7.1,0,0,0,3.43-.793,6.549,6.549,0,0,0,2.528-3.59q.465.543.88,1.111a17.364,17.364,0,0,1,2.547,5.037,3.42,3.42,0,0,0,2.213,2.231l3.027.97a1.9,1.9,0,0,1,1.328,1.819v5.019a1.9,1.9,0,0,1-1.328,1.819l-4.877,1.562a3.323,3.323,0,0,0-1.859,1.51,21.434,21.434,0,0,1-8.953,8.144,1.685,1.685,0,0,0-.884,1.188l-1.562,8.27a.483.483,0,0,1-.475.393H46.727a.484.484,0,0,1-.475-.393l-.865-4.571a1.69,1.69,0,0,0-1.922-1.359,44.953,44.953,0,0,1-6.7.5,42.873,42.873,0,0,1-4.929-.279,1.7,1.7,0,0,0-1.864,1.367l-.822,4.343a.483.483,0,0,1-.475.393H23.6a.484.484,0,0,1-.475-.4l-1.5-7.811A1.688,1.688,0,0,0,20.753,66c-6.862-3.663-10.489-9.783-10.489-17.7a20.673,20.673,0,0,1,2.6-10.51,18.763,18.763,0,0,1,6.989-6.824,1.075,1.075,0,0,0-1.077-1.862A20.469,20.469,0,0,0,8.39,44.4h0c-.1-.009-.207-.018-.31-.029a5.354,5.354,0,0,0-.394-2.146A4.4,4.4,0,0,0,4.421,39.37a2.972,2.972,0,0,0-2.8,1.246,2.832,2.832,0,0,0-.538,3.09c.542,1.116,1.934,1.906,4.244,2.4q-.1.143-.21.287A5.277,5.277,0,0,1,1.1,48.521,1.129,1.129,0,0,0,0,49.644v.005a1.126,1.126,0,0,0,1.079,1.123q.116.005.242.005c1.321,0,3.442-.487,5.48-3.042a6.133,6.133,0,0,0,.785-1.268q.3.034.585.06h0c-.037.583-.057,1.174-.057,1.776a22.162,22.162,0,0,0,3.173,11.868,21.741,21.741,0,0,0,8.263,7.625l1.462,7.594A2.636,2.636,0,0,0,23.6,77.532h5.078a2.636,2.636,0,0,0,2.588-2.144l.743-3.927a45.322,45.322,0,0,0,4.758.246,47.245,47.245,0,0,0,6.589-.459l.784,4.14a2.636,2.636,0,0,0,2.588,2.144h5.078a2.636,2.636,0,0,0,2.588-2.145l1.521-8.052a23.446,23.446,0,0,0,9.627-8.872,1.176,1.176,0,0,1,.654-.539l4.876-1.562a4.049,4.049,0,0,0,2.822-3.868V47.476A4.048,4.048,0,0,0,71.071,43.608ZM60.8,30.827c-.414,3.54-1.524,6.568-2.64,7.2a6.58,6.58,0,0,1-6.394-.751c-2.2-1.61-2.933-4.5-2.118-8.372h0a1.3,1.3,0,0,1,.738-.9c5.384-2.464,8.488-3.271,9.641-3.271a1.125,1.125,0,0,1,.39.052C60.764,25.156,61.218,27.255,60.8,30.827ZM3.019,42.767c-.111-.229.151-.633.318-.853a.858.858,0,0,1,.691-.42.807.807,0,0,1,.108.008,2.344,2.344,0,0,1,1.554,1.522,3.265,3.265,0,0,1,.225,1.014C4.427,43.73,3.27,43.285,3.019,42.767Z" transform="translate(0 -5.115)" fill="#5fd2fa"/>
      </g>
    </g>
    <g id="Group_14108" data-name="Group 14108" transform="translate(29.275 12.02)">
      <g id="Group_14107" data-name="Group 14107">
        <path id="Path_9711" data-name="Path 9711" d="M207.907,59.5V55.651c1.327.095,1.82.7,2.275.7.569,0,.834-.72.834-1.081,0-.929-1.82-1.327-3.109-1.365V53.4c0-.227-.284-.436-.569-.436a.5.5,0,0,0-.55.436v.55c-1.8.19-3.6,1.138-3.6,3.526,0,2.427,1.9,3.109,3.6,3.716v4.455c-1.934-.152-2.446-1.479-3.071-1.479-.474,0-.872.626-.872,1.081,0,.929,1.592,2.2,3.943,2.237h0v.588a.5.5,0,0,0,.55.436c.284,0,.569-.209.569-.436v-.645a3.673,3.673,0,0,0,3.45-3.905C211.357,60.94,209.556,60.106,207.907,59.5Zm-1-.36c-1-.379-1.82-.777-1.82-1.858,0-.986.758-1.46,1.82-1.592Zm.891,6.465v-4a2.217,2.217,0,0,1,1.668,2.123A1.8,1.8,0,0,1,207.793,65.6Z" transform="translate(-202.845 -52.959)" fill="#5fd2fa"/>
      </g>
    </g>
  </g>
</svg>
