<svg id="solana-sol-logo" xmlns="http://www.w3.org/2000/svg" width="52.317" height="41" viewBox="0 0 52.317 41">
  <path id="Path_9193" data-name="Path 9193" d="M8.48,234.6a1.712,1.712,0,0,1,1.21-.5H51.44a.855.855,0,0,1,.605,1.46L43.8,243.807a1.712,1.712,0,0,1-1.21.5H.837a.855.855,0,0,1-.605-1.46Z" transform="translate(0.02 -203.307)" fill="#fff"/>
  <path id="Path_9194" data-name="Path 9194" d="M8.48.5A1.759,1.759,0,0,1,9.69,0H51.44a.855.855,0,0,1,.605,1.46L43.8,9.707a1.712,1.712,0,0,1-1.21.5H.837a.855.855,0,0,1-.605-1.46Z" transform="translate(0.02)" fill="#fff"/>
  <path id="Path_9195" data-name="Path 9195" d="M43.8,116.8a1.712,1.712,0,0,0-1.21-.5H.837a.855.855,0,0,0-.605,1.46l8.247,8.247a1.712,1.712,0,0,0,1.21.5H51.44a.855.855,0,0,0,.605-1.46Z" transform="translate(0.02 -101.002)" fill="#fff"/>
</svg>
