<svg id="tether-usdt-logo" xmlns="http://www.w3.org/2000/svg" width="59.775" height="52" viewBox="0 0 59.775 52">
  <path id="Path_9196" data-name="Path 9196" d="M10.95.255.05,23.15a.444.444,0,0,0,.1.518L29.582,51.875a.449.449,0,0,0,.622,0L59.641,23.669a.444.444,0,0,0,.1-.518L48.836.257a.44.44,0,0,0-.4-.257H11.355a.44.44,0,0,0-.405.255Z" transform="translate(-0.005 0)" fill="#fff" fill-rule="evenodd"/>
  <path id="Path_9197" data-name="Path 9197" d="M86.49,58.646h0c-.211.016-1.3.081-3.739.081-1.937,0-3.313-.058-3.8-.081h0c-7.486-.329-13.074-1.633-13.074-3.193s5.588-2.862,13.074-3.2v5.091c.49.035,1.891.118,3.829.118,2.325,0,3.489-.1,3.7-.116V52.26c7.471.333,13.046,1.636,13.046,3.193s-5.574,2.86-13.046,3.191h0Zm0-6.912V47.178H96.916V40.23H68.53v6.948H78.954v4.554C70.482,52.121,64.11,53.8,64.11,55.81s6.372,3.688,14.844,4.079v14.6h7.534v-14.6c8.453-.389,14.814-2.066,14.814-4.075s-6.356-3.686-14.814-4.077h0Zm0,0Z" transform="translate(-52.821 -33.145)" fill="#5fd2fa" fill-rule="evenodd"/>
</svg>
