<svg xmlns="http://www.w3.org/2000/svg" width="53.843" height="41.589" viewBox="0 0 53.843 41.589">
  <path id="XMLID_2331_" d="M-4.04,50.967c1.438-.53,2.823-1.027,4.274-1.417.245-.079,3.094-.828,2.909-1.007-2.206-2.233-4.134-3.9-5.591-6.825a30.039,30.039,0,0,1-2.683-9.011A39.823,39.823,0,0,1-3.639,15.632C-2.181,10.888.437,5.641,4.75,2.872c.8-.5,5.115-2.312,5.42-.291.146.941-1.067.888-1.716,1.146A9.829,9.829,0,0,0,5.015,6.244C-2.5,14.035-2.574,28.9,1.434,38.259A15.778,15.778,0,0,0,6.1,44.779c.457.378,2.166,1.816,2.644,1.518s-.205-3.631-.238-4.274c-.106-2.292-.556-5.254.047-7.474.272-.981.835-1.848,1.955-1.59,1.4.232,1.424,1.69,1.616,2.823a88.784,88.784,0,0,1,.5,9.415c.073,2.829.735,5.658-2.565,6.393-3.333.682-6.844.96-10.257,1.4-.941.146-3.472.7-4.386-.06-1.318-1.166.749-1.279.543-1.961Z" transform="translate(4.936 37.68) rotate(-120)" fill="#5fd2fa"/>
</svg>
